<?xml version="1.0" encoding="UTF-8" standalone="no"?>
<!-- Created with Inkscape (http://www.inkscape.org/) -->

<svg
   xmlns:dc="http://purl.org/dc/elements/1.1/"
   xmlns:cc="http://creativecommons.org/ns#"
   xmlns:rdf="http://www.w3.org/1999/02/22-rdf-syntax-ns#"
   xmlns:svg="http://www.w3.org/2000/svg"
   xmlns="http://www.w3.org/2000/svg"
   xmlns:xlink="http://www.w3.org/1999/xlink"
   xmlns:sodipodi="http://sodipodi.sourceforge.net/DTD/sodipodi-0.dtd"
   xmlns:inkscape="http://www.inkscape.org/namespaces/inkscape"
   width="816.80005mm"
   height="616.79999mm"
   viewBox="0 0 816.80005 616.79999"
   version="1.1"
   id="svg8"
   inkscape:version="0.92.3 (2405546, 2018-03-11)"
   sodipodi:docname="baize.svg">
  <defs
     id="defs2">
    <linearGradient
       inkscape:collect="always"
       id="linearGradient142187">
      <stop
         style="stop-color:#026d46;stop-opacity:1;"
         offset="0"
         id="stop142183" />
      <stop
         id="stop142191"
         offset="0.37281978"
         style="stop-color:#026d46;stop-opacity:1" />
      <stop
         style="stop-color:#038152;stop-opacity:1"
         offset="0.63813001"
         id="stop142193" />
      <stop
         id="stop142195"
         offset="0.85233665"
         style="stop-color:#028052;stop-opacity:1" />
      <stop
         style="stop-color:#026d46;stop-opacity:1"
         offset="1"
         id="stop142185" />
    </linearGradient>
    <filter
       y="-0.15000001"
       height="1.3"
       x="-0.15000001"
       width="1.3"
       inkscape:menu-tooltip="Aquarelle paper effect which can be used for pictures as for objects"
       inkscape:menu="Textures"
       inkscape:label="Rough Paper"
       style="color-interpolation-filters:sRGB"
       id="filter71216">
      <feTurbulence
         type="fractalNoise"
         baseFrequency="0.012999999999999999"
         numOctaves="10"
         seed="0"
         result="result4"
         id="feTurbulence71202"
         scale="14.4" />
      <feDisplacementMap
         in="SourceGraphic"
         in2="result4"
         yChannelSelector="G"
         xChannelSelector="R"
         scale="14.433333"
         result="result3"
         id="feDisplacementMap71204"
         numOctaves="5" />
      <feDiffuseLighting
         lighting-color="#e9e6d7"
         diffuseConstant="1.10000002"
         surfaceScale="2.4000001"
         result="result1"
         in="result4"
         id="feDiffuseLighting71208"
         k1="1.6499999999999999">
        <feDistantLight
           id="feDistantLight71222"
           azimuth="74"
           elevation="41.229050279329613" />
      </feDiffuseLighting>
      <feComposite
         operator="in"
         in="result3"
         in2="result1"
         result="result2"
         id="feComposite71210" />
      <feComposite
         in2="result1"
         result="result5"
         operator="arithmetic"
         k1="1.6466667"
         id="feComposite71212"
         k2="0"
         k3="0"
         k4="0" />
      <feBlend
         in="result5"
         in2="result3"
         mode="normal"
         id="feBlend71214" />
    </filter>
    <linearGradient
       inkscape:collect="always"
       xlink:href="#linearGradient142187"
       id="linearGradient142189"
       x1="0"
       y1="-303"
       x2="510.01666"
       y2="297"
       gradientUnits="userSpaceOnUse" />
    <filter
       inkscape:collect="always"
       style="color-interpolation-filters:sRGB"
       id="filter71305"
       x="-0.0041151857"
       width="1.0082304"
       y="-0.0057582376"
       height="1.0115165">
      <feGaussianBlur
         inkscape:collect="always"
         stdDeviation="1.7561397"
         id="feGaussianBlur71307" />
    </filter>
    <filter
       inkscape:collect="always"
       style="color-interpolation-filters:sRGB"
       id="filter71351"
       x="-0.0105"
       width="1.021"
       y="-0.014"
       height="1.028">
      <feGaussianBlur
         inkscape:collect="always"
         stdDeviation="3.5"
         id="feGaussianBlur71353" />
    </filter>
    <filter
       inkscape:collect="always"
       style="color-interpolation-filters:sRGB"
       id="filter71365"
       x="-0.004160463"
       width="1.0083209"
       y="-0.0056718666"
       height="1.0113437">
      <feGaussianBlur
         inkscape:collect="always"
         stdDeviation="1.3010859"
         id="feGaussianBlur71367" />
    </filter>
  </defs>
  <sodipodi:namedview
     id="base"
     pagecolor="#ffffff"
     bordercolor="#666666"
     borderopacity="1.0"
     inkscape:pageopacity="0.0"
     inkscape:pageshadow="2"
     inkscape:zoom="0.1767767"
     inkscape:cx="689.58718"
     inkscape:cy="1201.8036"
     inkscape:document-units="px"
     inkscape:current-layer="layer1"
     showgrid="false"
     inkscape:window-width="1798"
     inkscape:window-height="1058"
     inkscape:window-x="0"
     inkscape:window-y="20"
     inkscape:window-maximized="1"
     inkscape:snap-page="true"
     fit-margin-top="0"
     fit-margin-left="0"
     fit-margin-right="0"
     fit-margin-bottom="0" />
  <metadata
     id="metadata5">
    <rdf:RDF>
      <cc:Work
         rdf:about="">
        <dc:format>image/svg+xml</dc:format>
        <dc:type
           rdf:resource="http://purl.org/dc/dcmitype/StillImage" />
        <dc:title></dc:title>
      </cc:Work>
    </rdf:RDF>
  </metadata>
  <g
     inkscape:label="Calque 1"
     inkscape:groupmode="layer"
     id="layer1"
     transform="translate(5.2249999,308.22495)">
    <rect
       ry="61.988094"
       rx="61.988094"
       y="-299.82495"
       x="3.175"
       height="600"
       width="800"
       id="rect71349"
       style="opacity:0.60700001;vector-effect:none;fill:#000000;fill-opacity:1;stroke:none;stroke-width:6;stroke-linecap:butt;stroke-linejoin:miter;stroke-miterlimit:4;stroke-dasharray:none;stroke-dashoffset:0;stroke-opacity:1;filter:url(#filter71351)" />
    <rect
       style="opacity:1;vector-effect:none;fill:url(#linearGradient142189);fill-opacity:1;stroke:none;stroke-width:6;stroke-linecap:butt;stroke-linejoin:miter;stroke-miterlimit:4;stroke-dasharray:none;stroke-dashoffset:0;stroke-opacity:1"
       id="rect71146"
       width="800"
       height="600"
       x="0"
       y="-303"
       rx="61.988094"
       ry="61.988094" />
    <path
       style="color:#000000;font-style:normal;font-variant:normal;font-weight:normal;font-stretch:normal;font-size:medium;line-height:normal;font-family:sans-serif;font-variant-ligatures:normal;font-variant-position:normal;font-variant-caps:normal;font-variant-numeric:normal;font-variant-alternates:normal;font-feature-settings:normal;text-indent:0;text-align:start;text-decoration:none;text-decoration-line:none;text-decoration-style:solid;text-decoration-color:#000000;letter-spacing:normal;word-spacing:normal;text-transform:none;writing-mode:lr-tb;direction:ltr;text-orientation:mixed;dominant-baseline:auto;baseline-shift:baseline;text-anchor:start;white-space:normal;shape-padding:0;clip-rule:nonzero;display:inline;overflow:visible;visibility:visible;opacity:1;isolation:auto;mix-blend-mode:normal;color-interpolation:sRGB;color-interpolation-filters:linearRGB;solid-color:#000000;solid-opacity:1;vector-effect:none;fill:#023f28;fill-opacity:1;fill-rule:nonzero;stroke:none;stroke-width:3;stroke-linecap:butt;stroke-linejoin:miter;stroke-miterlimit:4;stroke-dasharray:none;stroke-dashoffset:0;stroke-opacity:1;color-rendering:auto;image-rendering:auto;shape-rendering:auto;text-rendering:auto;enable-background:accumulate;filter:url(#filter71365)"
       d="m 72.255859,-278.27148 c -26.304088,0 -47.527343,21.22325 -47.527343,47.52734 v 455.48828 c 0,26.30409 21.223255,47.52734 47.527343,47.52734 H 727.74414 c 26.30409,0 47.52734,-21.22325 47.52734,-47.52734 v -455.48828 c 0,-26.30409 -21.22325,-47.52734 -47.52734,-47.52734 z m 0,3 H 727.74414 c 24.69398,0 44.52734,19.83336 44.52734,44.52734 v 455.48828 c 0,24.69398 -19.83336,44.52734 -44.52734,44.52734 H 72.255859 c -24.69398,0 -44.527343,-19.83336 -44.527343,-44.52734 v -455.48828 c 0,-24.69398 19.833363,-44.52734 44.527343,-44.52734 z"
       id="rect71148"
       inkscape:connector-curvature="0" />
    <g
       id="g142149"
       transform="matrix(0.67789857,0,0,0.67789857,128.92601,-0.05092867)"
       style="opacity:0.7229999;fill:#012618;fill-opacity:1;stroke:#026d46;stroke-width:1.47514689;stroke-opacity:1;filter:url(#filter71305)">
      <path
         style="color:#000000;display:block;overflow:visible;visibility:visible;fill:#012618;fill-opacity:1;fill-rule:nonzero;stroke:#026d46;stroke-width:1.47514689;stroke-linecap:butt;stroke-linejoin:miter;stroke-miterlimit:4;stroke-dashoffset:0;stroke-opacity:1;marker:none;marker-start:none;marker-mid:none;marker-end:none"
         d="m 891.69623,330.63445 c 12.27696,-4.3395 19.76418,-21.29457 6.19384,-29.08189 -13.22439,-7.58881 -23.10952,6.86383 -20.98282,17.4065 -10.25542,-13.76645 -9.04226,-18.71944 -9.80171,-23.17477 l -19.61919,19.6192 c 4.77621,0.80057 10.07467,-1.12007 24.36699,8.93868 -10.56421,-2.0838 -25.50366,8.47098 -18.0245,21.50429 7.35731,12.821 25.41719,6.25242 29.03856,-6.50353 -2.57943,13.12487 12.49587,28.0003 24.44799,16.04818 11.95213,-11.95211 -2.80101,-27.82686 -15.61916,-24.75666 z"
         id="rect3667"
         sodipodi:nodetypes="czcccczczc"
         inkscape:connector-curvature="0" />
      <path
         sodipodi:nodetypes="cccccccc"
         id="path2076"
         d="m -46.491978,-338.12367 c -0.4315,-40.30917 -34.753044,-35.53957 -40.79235,-10.0498 -7.634376,-13.58759 -6.832366,-16.05951 -7.819636,-20.66103 l -17.020946,17.02101 c 5.00668,0.63689 8.10874,-0.85013 20.984062,7.37575 -25.341012,6.84938 -26.180512,39.93695 10.282326,40.68065 21.896948,-1.4634 35.75907,3.32943 38.05197,3.68543 -0.17435,-2.03272 -4.437796,-17.24512 -3.685426,-38.05201 z"
         style="fill:#012618;fill-opacity:1;fill-rule:evenodd;stroke:#026d46;stroke-width:1.47514689;stroke-linecap:butt;stroke-linejoin:miter;stroke-opacity:1"
         inkscape:connector-curvature="0" />
      <path
         style="fill:#012618;fill-opacity:1;stroke:#026d46;stroke-width:1.47514689;stroke-opacity:1"
         d="m 911.87293,-368.83462 c -0.0411,0.14348 -0.48792,1.0307 -0.99304,1.97162 -3.20125,5.96311 -5.27769,13.16661 -6.67225,23.14709 -0.52394,3.74965 -0.89799,7.15991 -1.78293,16.25487 -1.02466,10.53085 -1.51406,13.74323 -2.69212,17.67096 -0.69567,2.31941 -2.14817,5.45459 -3.33209,7.19224 -1.18322,1.73666 -3.56389,4.12634 -5.07746,5.09676 -6.15676,3.9472 -14.45561,3.27106 -20.2654,-1.65109 -6.65555,-5.63871 -8.77911,-13.97296 -5.73583,-22.51104 l 0.67958,-1.90658 -1.48326,0.55978 c -2.20396,0.83178 -3.89129,1.19763 -6.28743,1.36323 -6.10067,0.42168 -11.0775,-1.36019 -15.15416,-5.42567 -1.82582,-1.8213 -2.71965,-3.01735 -3.78186,-5.06299 -1.58866,-3.05949 -2.1925,-5.95463 -1.94378,-9.31956 0.64817,-8.76911 7.54374,-14.70314 20.40245,-17.55743 2.99954,-0.66582 7.81649,-1.27207 14.11116,-1.776 7.24873,-0.58031 10.86732,-0.94061 14.72916,-1.46658 9.25683,-1.26077 16.72398,-3.35022 22.67731,-6.34555 0.90817,-0.45693 1.78058,-0.85658 1.93866,-0.88809 0.36712,-0.0731 0.76039,0.31462 0.66319,0.65416 z"
         id="path30"
         sodipodi:nodetypes="ccccccccccccccccccccc"
         inkscape:connector-curvature="0" />
      <path
         inkscape:transform-center-y="-234.12811"
         inkscape:transform-center-x="-473.6016"
         style="fill:#012618;fill-opacity:1;fill-rule:evenodd;stroke:#026d46;stroke-width:1.47514689;stroke-linecap:butt;stroke-linejoin:miter;stroke-opacity:1"
         d="m -42.765982,292.9142 c -19.28797,4.80802 -39.027873,8.24712 -58.439348,11.09769 -2.46039,19.80165 -5.76943,39.67161 -11.09769,58.43934 19.257105,-5.29737 38.591375,-9.37135 58.439348,-11.09769 2.33033,-19.93171 6.12875,-39.77078 11.09769,-58.43934 z"
         id="path2139"
         sodipodi:nodetypes="ccccc"
         inkscape:connector-curvature="0" />
    </g>
  </g>
</svg>
