<?xml version="1.0" encoding="UTF-8" standalone="no"?>
<svg
   xmlns:dc="http://purl.org/dc/elements/1.1/"
   xmlns:cc="http://creativecommons.org/ns#"
   xmlns:rdf="http://www.w3.org/1999/02/22-rdf-syntax-ns#"
   xmlns:svg="http://www.w3.org/2000/svg"
   xmlns="http://www.w3.org/2000/svg"
   xmlns:sodipodi="http://sodipodi.sourceforge.net/DTD/sodipodi-0.dtd"
   xmlns:inkscape="http://www.inkscape.org/namespaces/inkscape"
   width="45.077278mm"
   height="47.236168mm"
   viewBox="0 0 45.077276 47.236167"
   version="1.1"
   id="svg8"
   sodipodi:docname="club.svg"
   inkscape:version="1.0 (4035a4f, 2020-05-01)">
  <style
     id="style884"></style>
  <defs
     id="defs2">
    <linearGradient
       id="linearGradient4034">
      <stop
         id="stop4036"
         offset="0"
         style="stop-color:#fffcff;stop-opacity:0.93377483;" />
      <stop
         id="stop4038"
         offset="1"
         style="stop-color:#fffcff;stop-opacity:0;" />
    </linearGradient>
    <inkscape:perspective
       id="perspective6177"
       inkscape:persp3d-origin="372.04719 : 362.08665 : 1"
       inkscape:vp_z="744.09436 : 537.48036 : 1"
       inkscape:vp_y="0 : 1000 : 0"
       inkscape:vp_x="0 : 537.48036 : 1"
       sodipodi:type="inkscape:persp3d" />
  </defs>
  <sodipodi:namedview
     id="base"
     pagecolor="#ffffff"
     bordercolor="#666666"
     borderopacity="1.0"
     inkscape:pageopacity="0.0"
     inkscape:pageshadow="2"
     inkscape:zoom="1"
     inkscape:cx="-46.952953"
     inkscape:cy="69.934471"
     inkscape:document-units="mm"
     inkscape:current-layer="g937"
     inkscape:document-rotation="0"
     showgrid="false"
     inkscape:window-width="1768"
     inkscape:window-height="1028"
     inkscape:window-x="15"
     inkscape:window-y="35"
     inkscape:window-maximized="1" />
  <metadata
     id="metadata5">
    <rdf:RDF>
      <cc:Work
         rdf:about="">
        <dc:format>image/svg+xml</dc:format>
        <dc:type
           rdf:resource="http://purl.org/dc/dcmitype/StillImage" />
        <dc:title />
      </cc:Work>
    </rdf:RDF>
  </metadata>
  <g
     inkscape:label="Calque 1"
     inkscape:groupmode="layer"
     id="layer1"
     transform="translate(-88.101899,61.940743)">
    <g
       transform="matrix(0.26458333,0,0,0.26458333,107.76101,7.7941939)"
       id="layer1-0"
       inkscape:groupmode="layer"
       inkscape:label="Layer 1">
      <g
         id="g937"
         transform="translate(96.248006)">
        <path
           id="path1448"
           style="opacity:1;fill:#2c3e50;stroke:#000000;stroke-width:9.36106;stroke-linejoin:round;stroke-miterlimit:4;stroke-dasharray:none;stop-color:#000000"
           inkscape:transform-center-y="-2.5921806"
           d="m -85.364295,-136.76426 2.65366,2.04814 2.65365,6.42885 2.65365,6.42884 2.65366,6.42885 2.65365,6.42884 2.65366,6.42884 2.65365,6.428855 2.65365,6.428844 c -1.74466,-1.538347 -3.49257,-2.872364 -5.24366,-4.006565 -1.75108,-1.1342 -3.50533,-2.068585 -5.2627,-2.807665 -1.75736,-0.73908 -3.51783,-1.282859 -5.28132,-1.635849 -1.76349,-0.352989 -3.53002,-0.515189 -5.29951,-0.491113 -1.76948,0.02407 -3.54193,0.234422 -5.31726,0.626532 -1.77533,0.39211 -3.55355,0.965982 -5.33458,1.717099 -1.78104,0.751118 -3.56489,1.679483 -5.351485,2.780581 -1.78659,1.101098 -3.57593,2.374929 -5.36794,3.816979 l 2.65365,-6.428846 2.65365,-6.428852 2.653655,-6.42884 2.65365,-6.42884 2.65366,-6.42885 2.65365,-6.42884 2.65365,-6.42885 z"
           sodipodi:nodetypes="cccccccccsssssssccccccccc" />
        <path
           d="m -85.36378,-258.88459 a 40.290146,40.290146 0 0 0 -40.29101,40.29101 40.290146,40.290146 0 0 0 11.4668,28.15039 40.290146,40.290146 0 0 0 -11.39063,-1.64453 40.290146,40.290146 0 0 0 -40.29101,40.29102 40.290146,40.290146 0 0 0 40.29101,40.28906 40.290146,40.290146 0 0 0 40.21484,-37.83203 40.290146,40.290146 0 0 0 40.21485,37.83203 40.290146,40.290146 0 0 0 40.28906,-40.28906 40.290146,40.290146 0 0 0 -40.28906,-40.29102 40.290146,40.290146 0 0 0 -11.39258,1.64453 40.290146,40.290146 0 0 0 11.4668,-28.15039 40.290146,40.290146 0 0 0 -40.28907,-40.29101 z"
           style="font-variation-settings:normal;opacity:1;vector-effect:none;fill:#2c3e50;fill-opacity:1;stroke:#000000;stroke-width:9.36106;stroke-linecap:butt;stroke-linejoin:round;stroke-miterlimit:4;stroke-dasharray:none;stroke-dashoffset:0;stroke-opacity:1;stop-color:#000000;stop-opacity:1"
           id="path1450" />
        <path
           transform="translate(-443.04151,-273.93107)"
           d="m 357.67773,19.728516 c -19.72268,-4.3e-4 -35.61174,15.886685 -35.61132,35.609375 2.7e-4,9.30016 3.63654,18.227569 10.13476,24.880859 a 4.680998,4.680998 0 0 1 -4.67187,7.759766 c -3.26896,-0.96376 -6.65835,-1.452885 -10.06641,-1.453125 -19.7227,-4.2e-4 -35.61176,15.886689 -35.61133,35.609379 4e-4,14.80268 8.95141,27.44422 21.75586,32.83007 a 40.290142,40.290142 0 0 1 -5.27344,-19.92187 40.290142,40.290142 0 0 1 40.29102,-40.291017 40.290142,40.290142 0 0 1 11.38867,1.644531 40.290142,40.290142 0 0 1 -11.46484,-28.15039 40.290142,40.290142 0 0 1 40.28906,-40.291016 40.290142,40.290142 0 0 1 1.68555,0.03516 C 374.34777,22.830619 366.3881,19.728749 357.67773,19.72852 Z"
           style="font-variation-settings:normal;opacity:1;vector-effect:none;fill:#34495e;fill-opacity:1;stroke:none;stroke-width:9.36106;stroke-linecap:butt;stroke-linejoin:round;stroke-miterlimit:4;stroke-dasharray:none;stroke-dashoffset:0;stroke-opacity:1;stop-color:#000000;stop-opacity:1"
           id="path1540" />
      </g>
    </g>
  </g>
</svg>
