<?xml version="1.0" encoding="UTF-8" standalone="no"?>
<svg
   xmlns:dc="http://purl.org/dc/elements/1.1/"
   xmlns:cc="http://creativecommons.org/ns#"
   xmlns:rdf="http://www.w3.org/1999/02/22-rdf-syntax-ns#"
   xmlns:svg="http://www.w3.org/2000/svg"
   xmlns="http://www.w3.org/2000/svg"
   xmlns:sodipodi="http://sodipodi.sourceforge.net/DTD/sodipodi-0.dtd"
   xmlns:inkscape="http://www.inkscape.org/namespaces/inkscape"
   inkscape:version="1.0 (4035a4f, 2020-05-01)"
   sodipodi:docname="club.svg"
   id="svg8"
   version="1.1"
   viewBox="0 0 48.967443 49.9789"
   height="49.978901mm"
   width="48.967445mm">
  <style
     id="style884"></style>
  <defs
     id="defs2">
    <linearGradient
       id="linearGradient4034">
      <stop
         style="stop-color:#fffcff;stop-opacity:0.93377483;"
         offset="0"
         id="stop4036" />
      <stop
         style="stop-color:#fffcff;stop-opacity:0;"
         offset="1"
         id="stop4038" />
    </linearGradient>
    <inkscape:perspective
       sodipodi:type="inkscape:persp3d"
       inkscape:vp_x="0 : 540.22307 : 1"
       inkscape:vp_y="0 : 999.99998 : 0"
       inkscape:vp_z="744.09439 : 540.22307 : 1"
       inkscape:persp3d-origin="372.0472 : 364.82937 : 1"
       id="perspective6177" />
  </defs>
  <sodipodi:namedview
     inkscape:window-maximized="1"
     inkscape:window-y="35"
     inkscape:window-x="15"
     inkscape:window-height="1028"
     inkscape:window-width="1768"
     showgrid="false"
     inkscape:document-rotation="0"
     inkscape:current-layer="layer1-0"
     inkscape:document-units="mm"
     inkscape:cy="212.8627"
     inkscape:cx="72.602586"
     inkscape:zoom="1.4142136"
     inkscape:pageshadow="2"
     inkscape:pageopacity="0.0"
     borderopacity="1.0"
     bordercolor="#666666"
     pagecolor="#ffffff"
     id="base" />
  <metadata
     id="metadata5">
    <rdf:RDF>
      <cc:Work
         rdf:about="">
        <dc:format>image/svg+xml</dc:format>
        <dc:type
           rdf:resource="http://purl.org/dc/dcmitype/StillImage" />
        <dc:title />
      </cc:Work>
    </rdf:RDF>
  </metadata>
  <g
     transform="translate(-16.005229,64.683401)"
     id="layer1"
     inkscape:groupmode="layer"
     inkscape:label="Calque 1">
    <g
       inkscape:label="Layer 1"
       inkscape:groupmode="layer"
       id="layer1-0"
       transform="matrix(0.26458333,0,0,0.26458333,107.76101,7.7941939)">
      <g
         transform="translate(96.248006)"
         id="g937">
        <path
           id="path886"
           style="opacity:1;fill:#34495e;stroke:none;stroke-width:8.80719;stroke-linejoin:round;stop-color:#000000"
           d="m -350.75905,-267.52866 c -24.02511,0.10417 -43.44623,19.60969 -43.44614,43.63501 3e-5,7.06863 1.71731,14.03144 5.00409,20.28944 -1.26374,-0.11057 -2.5317,-0.16602 -3.80028,-0.16612 -24.0989,1.5e-4 -43.63486,19.53612 -43.63501,43.63501 1.5e-4,24.09889 19.53611,43.63486 43.63501,43.63501 5.07061,-1.3e-4 9.97408,-0.87371 14.54898,-2.49265 4.57492,-1.61895 8.82128,-3.98325 12.57771,-6.96482 3.75643,-2.98157 7.02292,-6.5804 9.6381,-10.6684 2.61516,-4.08799 4.579,5.02525 5.73013,0.087 1.15112,4.93822 3.11496,-4.17502 5.73014,-0.087 2.61516,4.088 5.88165,7.68683 9.63808,10.6684 3.75643,2.98157 8.00281,5.34587 12.57771,6.96482 4.57492,1.61895 9.47838,2.49253 14.549,2.49265 24.09977,0.001 43.63713,-19.53523 43.63728,-43.63501 -1.5e-4,-24.09978 -19.53751,-43.63612 -43.63728,-43.63501 -1.31352,-8e-5 -2.62638,0.0592 -3.93455,0.17749 3.29095,-6.2608 5.01063,-13.22776 5.01092,-20.30081 -1.5e-4,-24.09889 -19.53612,-43.63485 -43.63501,-43.63501 -0.0629,-1.4e-4 -0.12592,-1.4e-4 -0.18888,0 z"
           sodipodi:nodetypes="csccccssscsssccccccc" />
        <path
           id="path903"
           style="opacity:1;fill:#2c3e50;stroke:#000000;stroke-width:9.36106;stroke-linejoin:round;stroke-miterlimit:4;stroke-dasharray:none;stop-color:#000000"
           inkscape:transform-center-y="-2.5921806"
           d="m -350.50532,-136.76426 2.65366,2.04814 2.65365,6.42885 2.65365,6.42884 2.65366,6.42885 2.65365,6.42884 2.65366,6.42884 2.65365,6.428855 2.65365,6.428844 c -1.74466,-1.538347 -3.49257,-2.872364 -5.24366,-4.006565 -1.75108,-1.1342 -3.50533,-2.068585 -5.2627,-2.807665 -1.75736,-0.73908 -3.51783,-1.282859 -5.28132,-1.635849 -1.76349,-0.352989 -3.53002,-0.515189 -5.29951,-0.491113 -1.76948,0.02407 -3.54193,0.234422 -5.31726,0.626532 -1.77533,0.39211 -3.55355,0.965982 -5.33458,1.717099 -1.78104,0.751118 -3.56489,1.679483 -5.35149,2.780581 -1.78659,1.101098 -3.57593,2.374929 -5.36794,3.816979 l 2.65365,-6.428846 2.65365,-6.428852 2.65366,-6.42884 2.65365,-6.42884 2.65366,-6.42885 2.65365,-6.42884 2.65365,-6.42885 z"
           sodipodi:nodetypes="cccccccccsssssssccccccccc" />
        <path
           id="path907"
           style="opacity:1;fill:#2c3e50;stroke:none;stroke-width:6.53955;stroke-linejoin:round;stroke-miterlimit:4;stroke-dasharray:none;stop-color:#000000"
           d="m -326.64389,-258.24412 a 41.367433,41.367433 0 0 0 -41.18872,41.36849 41.367433,41.367433 0 0 0 2.91962,15.26713 41.367433,41.367433 0 0 0 -34.95808,40.86559 41.367433,41.367433 0 0 0 27.58735,39.00412 c 2.2583,-1.21979 4.4042,-2.62842 6.40815,-4.219 3.75643,-2.98157 7.02434,-6.58011 9.63951,-10.66811 2.61517,-4.08799 4.57889,5.02469 5.73001,0.0865 1.15113,4.93822 3.11484,-4.17446 5.73002,-0.0865 2.51324,3.92868 5.63179,7.39942 9.20488,10.31084 a 41.367433,41.367433 0 0 0 2.54642,-1.8387 41.367433,41.367433 0 0 0 27.67837,10.6226 41.367433,41.367433 0 0 0 16.99433,-3.65238 41.367433,41.367433 0 0 0 0.0114,-0.005 c 14.21474,-7.19322 23.96672,-21.92684 23.96683,-38.94723 -10e-6,-3.47064 -0.41765,-6.84208 -1.18332,-10.07872 a 41.367433,41.367433 0 0 0 -24.45609,-27.10719 41.367433,41.367433 0 0 0 1.04224,-2.08219 c -5.75457,-2.79526 -12.21274,-4.36723 -19.04011,-4.36691 -1.31352,-9e-5 -2.62638,0.0592 -3.93455,0.17749 3.29095,-6.2608 5.01063,-13.22776 5.01092,-20.3008 -1e-4,-13.89002 -6.49896,-26.25445 -16.61203,-34.24581 a 41.367433,41.367433 0 0 0 -2.91962,-0.10467 41.367433,41.367433 0 0 0 -0.1775,0 z" />
        <path
           d="m -352.04883,-273.91016 c -11.42699,0.29546 -22.67218,4.71041 -31.28014,12.22538 -9.15526,7.90611 -15.31074,19.2143 -16.84593,31.22407 -0.93191,6.94689 -0.34477,14.08612 1.68857,20.79274 -11.98786,1.28259 -23.40532,7.09825 -31.51511,16.01537 -7.90235,8.57297 -12.62385,20.00498 -12.99983,31.66428 -0.47599,11.58836 3.28685,23.28 10.41937,32.4242 7.66987,9.97337 19.20927,16.89435 31.65133,18.83684 11.90796,1.9415 24.48505,-0.61718 34.66002,-7.11036 4.75685,-2.95764 8.90663,-6.83033 12.32328,-11.26002 1.10136,0.47515 2.3371,0.44444 3.47071,0.13282 1.11602,0.33822 2.33023,0.31979 3.41211,-0.13282 3.51687,4.56649 7.82035,8.53241 12.75203,11.52883 10.29452,6.42438 22.97694,8.84396 34.91995,6.72696 12.36166,-2.11023 23.76139,-9.13859 31.29399,-19.15135 6.96695,-9.13568 10.60106,-20.7343 10.08191,-32.21246 -0.43198,-11.83733 -5.34925,-23.41795 -13.50369,-32.00044 -8.09672,-8.64463 -19.34544,-14.25047 -31.12818,-15.48138 3.5721,-11.66107 2.56756,-24.6236 -2.70476,-35.61546 -5.66838,-12.02205 -16.31504,-21.58328 -28.89368,-25.88986 -5.70262,-1.9821 -11.76901,-2.89106 -17.80195,-2.71734 z m 1.3086,12.78516 c 9.16777,-0.0824 18.30695,3.377 25.0982,9.54032 7.26161,6.4818 11.77596,15.91653 12.24733,25.64089 0.39195,6.81844 -1.18114,13.70816 -4.39252,19.7283 -1.38179,2.89688 -0.13418,6.6844 2.69415,8.19906 1.49784,0.91257 3.30059,0.90998 4.98462,0.71066 9.46368,-0.57536 19.09312,2.63598 26.28098,8.82656 7.43106,6.28587 12.19827,15.59648 12.9283,25.3053 0.77711,9.19761 -1.99519,18.64675 -7.69933,25.91397 -6.0943,7.90032 -15.49062,13.15161 -25.42499,14.14441 -4.04967,0.42152 -7.92839,0.21806 -11.91987,-0.64033 -0.45228,-0.0966 -0.9704,-0.22237 -1.52734,-0.36523 -1.47768,-0.38856 -3.00273,-0.89581 -4.31663,-1.42323 -7.37049,-2.91165 -13.71382,-8.26852 -17.90017,-14.98888 -1.52829,-2.29643 -4.26019,-3.7544 -7.03711,-3.5293 -1.25386,0.0479 -2.4886,0.45848 -3.5332,1.12695 -0.77404,0.12758 -1.30028,-0.61237 -2.03617,-0.75265 -2.89464,-0.97381 -6.31912,-0.10231 -8.30738,2.24401 -1.27377,1.54277 -2.22116,3.33159 -3.5467,4.83952 -6.38575,7.89146 -16.12008,12.95572 -26.25493,13.61067 -0.90687,0.0619 -1.64158,0.0858 -2.59506,0.0917 -5.88222,0.005 -11.76356,-1.38656 -16.99804,-4.07618 -0.35155,-0.17661 -1.05922,-0.56039 -1.53756,-0.83365 -9.01398,-5.1161 -15.68155,-14.16747 -17.83825,-24.31116 -2.16458,-9.77507 -0.21995,-20.39908 5.38927,-28.70767 3.51113,-5.26599 8.38965,-9.60702 14.02755,-12.48345 0.28103,-0.13266 0.92661,-0.46419 1.35475,-0.65111 5.99207,-2.78981 12.73256,-3.84366 19.3015,-3.23561 3.19584,0.12133 6.17271,-2.50133 6.46039,-5.68531 0.25898,-1.75273 -0.47191,-3.41754 -1.30098,-4.91187 -4.81355,-9.90702 -4.87813,-21.96434 -0.15844,-31.91761 4.42346,-9.56054 13.11425,-17.02334 23.24576,-19.92017 3.34571,-0.97746 6.82723,-1.46994 10.31187,-1.48887 z"
           style="color:#000000;font-style:normal;font-variant:normal;font-weight:normal;font-stretch:normal;font-size:medium;line-height:normal;font-family:sans-serif;font-variant-ligatures:normal;font-variant-position:normal;font-variant-caps:normal;font-variant-numeric:normal;font-variant-alternates:normal;font-variant-east-asian:normal;font-feature-settings:normal;font-variation-settings:normal;text-indent:0;text-align:start;text-decoration:none;text-decoration-line:none;text-decoration-style:solid;text-decoration-color:#000000;letter-spacing:normal;word-spacing:normal;text-transform:none;writing-mode:lr-tb;direction:ltr;text-orientation:mixed;dominant-baseline:auto;baseline-shift:baseline;text-anchor:start;white-space:normal;shape-padding:0;shape-margin:0;inline-size:0;clip-rule:nonzero;display:inline;overflow:visible;visibility:visible;isolation:auto;mix-blend-mode:normal;color-interpolation:sRGB;color-interpolation-filters:linearRGB;solid-color:#000000;solid-opacity:1;vector-effect:none;fill:#000000;fill-opacity:1;fill-rule:nonzero;stroke:none;stroke-width:8.80719;stroke-linecap:butt;stroke-linejoin:round;stroke-miterlimit:4;stroke-dasharray:none;stroke-dashoffset:0;stroke-opacity:1;color-rendering:auto;image-rendering:auto;shape-rendering:auto;text-rendering:auto;enable-background:accumulate;stop-color:#000000"
           id="path929" />
      </g>
    </g>
  </g>
</svg>
