<?xml version="1.0" encoding="UTF-8" standalone="no"?>
<svg
   xmlns:dc="http://purl.org/dc/elements/1.1/"
   xmlns:cc="http://creativecommons.org/ns#"
   xmlns:rdf="http://www.w3.org/1999/02/22-rdf-syntax-ns#"
   xmlns:svg="http://www.w3.org/2000/svg"
   xmlns="http://www.w3.org/2000/svg"
   id="svg213187"
   version="1.1"
   viewBox="0 0 91.999276 98.340179"
   height="98.340179mm"
   width="91.999275mm">
  <defs
     id="defs213181" />
  <metadata
     id="metadata213184">
    <rdf:RDF>
      <cc:Work
         rdf:about="">
        <dc:format>image/svg+xml</dc:format>
        <dc:type
           rdf:resource="http://purl.org/dc/dcmitype/StillImage" />
        <dc:title></dc:title>
      </cc:Work>
    </rdf:RDF>
  </metadata>
  <g
     transform="translate(19.755005,-83.821445)"
     id="layer1">
    <path
       style="fill:#ff0000;fill-opacity:1;stroke-width:0.26458332"
       d="m 25.621151,181.87423 c -0.0908,-0.16358 -0.48119,-1.34625 -0.867524,-2.62818 -2.448398,-8.12427 -6.993575,-16.35101 -14.605066,-26.43508 -2.8596254,-3.78856 -5.5512444,-7.14339 -12.8294874,-15.99065 -8.4273196,-10.24404 -10.8412666,-13.5257 -13.2788616,-18.05203 -1.439456,-2.67289 -2.931172,-6.73989 -3.422065,-9.32989 -0.490612,-2.58849 -0.498611,-6.81746 -0.01706,-9.01952 C -17.440132,91.461639 -9.4837314,84.704033 0.03021858,83.917144 10.929167,83.015706 20.200106,88.521521 25.071289,98.788505 l 1.087744,2.292635 0.818666,-1.81117 c 1.216456,-2.691196 2.387962,-4.511355 4.365339,-6.782366 5.034486,-5.782109 11.026127,-8.614471 18.24419,-8.62438 3.233203,-0.0044 5.085901,0.263919 7.841039,1.135737 4.120604,1.303896 7.222482,3.335153 9.985023,6.538685 7.199283,8.348496 6.346872,19.722024 -2.522125,33.651714 -2.068862,3.24938 -5.801686,8.05709 -10.935216,14.0841 -5.911609,6.94051 -8.800103,10.46782 -11.757374,14.35765 -7.088582,9.32393 -11.855953,17.79593 -14.478246,25.72899 -0.400027,1.21018 -0.819129,2.33785 -0.931342,2.50594 -0.26058,0.39032 -0.953,0.39518 -1.167836,0.008 z"
       id="path30" />
  </g>
</svg>
