<?xml version="1.0" encoding="UTF-8" standalone="no"?>
<svg
   xmlns:dc="http://purl.org/dc/elements/1.1/"
   xmlns:cc="http://creativecommons.org/ns#"
   xmlns:rdf="http://www.w3.org/1999/02/22-rdf-syntax-ns#"
   xmlns:svg="http://www.w3.org/2000/svg"
   xmlns="http://www.w3.org/2000/svg"
   xmlns:sodipodi="http://sodipodi.sourceforge.net/DTD/sodipodi-0.dtd"
   xmlns:inkscape="http://www.inkscape.org/namespaces/inkscape"
   width="48.543957mm"
   height="44.803902mm"
   viewBox="0 0 48.543955 44.803901"
   version="1.1"
   id="svg8"
   sodipodi:docname="heart.svg"
   inkscape:version="1.0 (4035a4f, 2020-05-01)">
  <defs
     id="defs2">
    <linearGradient
       id="linearGradient4034">
      <stop
         id="stop4036"
         offset="0"
         style="stop-color:#fffcff;stop-opacity:0.93377483;" />
      <stop
         id="stop4038"
         offset="1"
         style="stop-color:#fffcff;stop-opacity:0;" />
    </linearGradient>
    <inkscape:perspective
       id="perspective6177"
       inkscape:persp3d-origin="372.04719 : 353.66839 : 1"
       inkscape:vp_z="744.09438 : 529.06208 : 1"
       inkscape:vp_y="0 : 999.99994 : 0"
       inkscape:vp_x="0 : 529.06208 : 1"
       sodipodi:type="inkscape:persp3d" />
  </defs>
  <sodipodi:namedview
     id="base"
     pagecolor="#ffffff"
     bordercolor="#666666"
     borderopacity="1.0"
     inkscape:pageopacity="0.0"
     inkscape:pageshadow="2"
     inkscape:zoom="0.5"
     inkscape:cx="636.88902"
     inkscape:cy="-267.62553"
     inkscape:document-units="mm"
     inkscape:current-layer="layer1-0"
     inkscape:document-rotation="0"
     showgrid="false"
     inkscape:window-width="1768"
     inkscape:window-height="1028"
     inkscape:window-x="15"
     inkscape:window-y="35"
     inkscape:window-maximized="1" />
  <metadata
     id="metadata5">
    <rdf:RDF>
      <cc:Work
         rdf:about="">
        <dc:format>image/svg+xml</dc:format>
        <dc:type
           rdf:resource="http://purl.org/dc/dcmitype/StillImage" />
        <dc:title></dc:title>
      </cc:Work>
    </rdf:RDF>
  </metadata>
  <g
     inkscape:label="Calque 1"
     inkscape:groupmode="layer"
     id="layer1"
     transform="translate(56.476935,-12.624857)">
    <g
       transform="matrix(0.26458333,0,0,0.26458333,107.76101,7.7941939)"
       id="layer1-0"
       inkscape:groupmode="layer"
       inkscape:label="Layer 1">
      <g
         id="g1231">
        <path
           id="path1038"
           fill="#e04a5d"
           d="m -457.97111,38.98121 a 50.216,50.216 0 0 1 0,71.04 l -70.97,71.57 -71.09,-71.04 a 50.244,50.244 0 0 1 70.76,-71.35 l 0.22,-0.22 a 50.276,50.276 0 0 1 71.08,0 z" />
        <path
           id="path1048"
           fill="#ff5a5a"
           d="m -570.03111,110.55121 a 50.235,50.235 0 0 1 20.538,-83.468 50.241,50.241 0 0 0 -50.538,83.468 l 71.09,71.04 14.932,-15.058 z" />
        <path
           style="fill:#000000"
           d="m -529.32511,31.12721 a 56.248,56.248 0 0 0 -74.946,83.667 l 71.086,71.045 a 6,6 0 0 0 4.241,1.756 h 0.013 a 6,6 0 0 0 4.247,-1.775 l 70.953,-71.552 a 56.249,56.249 0 0 0 -75.594,-83.141 z m 67.093,74.674 -66.731,67.294 -66.825,-66.787 a 44.247228,44.247228 0 0 1 62.317,-62.832 6,6 0 0 0 8.449,-0.036 l 0.219,-0.218 a 44.248,44.248 0 1 1 62.571,62.579 z"
           id="path1050" />
      </g>
    </g>
  </g>
</svg>
